<svg xmlns="http://www.w3.org/2000/svg" viewBox="0 0 96 64" role="img" aria-label="Boolean Builder logo">
  <rect x="3" y="6" width="90" height="52" rx="8" fill="#F8FAFC" stroke="#E5E7EB" stroke-width="2" />
  <g fill="none" stroke-linecap="round" stroke-linejoin="round" stroke-width="2.6">
    <!-- Tail -->
    <path stroke="#8A6DFF" d="M72 16c10 2 16 10 14 18-2 8-10 12-18 10-6-2-8-7-6-12 2-6 6-8 10-8" />
    <path stroke="#C8A5FF" d="M74 22c6 2 9 7 7 12" />

    <!-- Body -->
    <path stroke="#6D58E5" d="M30 42c0-8 7-14 15-14h8c7 0 12 6 12 12v8" />
    <path stroke="#6D58E5" d="M45 28c-3-6 1-12 8-14" />

    <!-- Head -->
    <circle cx="38" cy="24" r="7" stroke="#6D58E5" />
    <path stroke="#6D58E5" d="M33 19l-4-4" />
    <path stroke="#6D58E5" d="M43 19l4-4" />

    <!-- Face -->
    <circle cx="36" cy="24" r="1.2" stroke="#6D58E5" />
    <path stroke="#6D58E5" d="M41 27c-2 1-3 1-4 0" />

    <!-- Legs -->
    <path stroke="#6D58E5" d="M40 50v6" />
    <path stroke="#6D58E5" d="M54 50v6" />

    <!-- Nut -->
    <circle cx="26" cy="45" r="5.5" stroke="#8A6DFF" />
    <path stroke="#C8A5FF" d="M23 44h6" />
  </g>
</svg>
